<svg fill="none" viewBox="0 0 903 517"><path fill="#fff" d="M586.667 512.704C586.592 509.174 587.222 505.664 588.521 502.381C589.82 499.098 591.762 496.107 594.232 493.584C596.702 491.061 599.65 489.056 602.905 487.688C606.16 486.319 609.655 485.614 613.186 485.614C616.717 485.614 620.212 486.319 623.467 487.688C626.722 489.056 629.671 491.061 632.141 493.584C634.611 496.107 636.552 499.098 637.851 502.381C639.15 505.664 639.78 509.174 639.705 512.704"/><path stroke="#DEDFE0" stroke-linecap="round" stroke-linejoin="round" stroke-width="3" d="M673.315 355.498V394.535M768.669 2.41064V36.9809V2.41064ZM682.801 38.4339H803.239H682.801ZM734.098 38.4339V78.5878V38.4339ZM682.801 78.5878H874.601H682.801ZM788.734 78.5878V117.613V78.5878ZM652.686 117.613H824.421H652.686ZM743.02 117.613V156.638V117.613ZM787.029 240.308V274.866V240.308ZM872.884 276.331H752.458H872.884ZM821.599 276.331V316.473V276.331ZM872.884 316.473H681.084H872.884ZM766.952 316.473V355.498V316.473ZM902.999 355.498H731.265H902.999ZM812.677 355.498V394.535V355.498ZM471.225 65.5233V100.094V65.5233ZM557.092 101.547H436.655H557.092ZM505.795 101.547V141.7V101.547ZM557.092 141.7H365.293H557.092ZM451.148 141.7V180.726V141.7ZM587.196 180.726H415.473H587.196ZM496.874 180.726V219.751V180.726ZM647.679 240.308V274.866V240.308ZM733.534 276.331H613.108H733.534ZM682.237 276.331V316.473V276.331ZM733.534 316.473H541.734H733.534ZM627.602 316.473V355.498V316.473ZM763.649 355.498H591.915H763.649Z"/><path fill="#FCE3DE" stroke="#A0A3A8" stroke-linecap="round" stroke-linejoin="round" stroke-width="3" d="M533.847 248.545V247.741C533.841 249.933 532.967 252.034 531.417 253.584C529.867 255.134 527.766 256.008 525.574 256.014H382.682C381.589 256.022 380.506 255.814 379.494 255.402C378.482 254.99 377.561 254.382 376.784 253.614C376.008 252.845 375.391 251.93 374.969 250.923C374.547 249.915 374.328 248.833 374.324 247.741L533.847 248.545Z" opacity=".15"/><path fill="#8D7047" stroke="#A0A3A8" stroke-linecap="round" stroke-linejoin="round" stroke-width="3" d="M359.697 239.912H548.495V247.741H359.697V239.912Z" opacity=".15"/><path fill="#D0F7DA" d="M272.067 488.004C272.067 488.004 269.269 419.415 231.973 390.741C231.973 390.741 225.285 447.55 252.05 497.718"/><path stroke="#A0A3A8" stroke-width="3" d="M272.067 488.004C272.067 488.004 269.269 419.415 231.973 390.741C231.973 390.741 225.285 447.55 252.05 497.718"/><path fill="#D0F7DA" d="M248.88 465.513C248.88 465.513 237.173 397.874 196.455 374.254C196.455 374.254 197.223 431.447 230.304 477.701"/><path stroke="#A0A3A8" stroke-width="3" d="M248.88 465.513C248.88 465.513 237.173 397.874 196.455 374.254C196.455 374.254 197.223 431.447 230.304 477.701"/><path fill="#D0F7DA" d="M196.501 375.815C196.501 375.815 206.611 412.163 224.695 437.607L196.501 375.815Z"/><path stroke="#A0A3A8" stroke-linecap="round" stroke-linejoin="round" stroke-width="3" d="M196.501 375.815C196.501 375.815 206.611 412.163 224.695 437.607"/><path fill="#D0F7DA" d="M264.415 470.22C264.415 470.22 256.13 402.077 288.335 367.794C288.335 367.794 304.077 422.778 285.729 476.609"/><path stroke="#A0A3A8" stroke-width="3" d="M264.415 470.22C264.415 470.22 256.13 402.077 288.335 367.794C288.335 367.794 304.077 422.778 285.729 476.609"/><path fill="#D0F7DA" d="M268.197 373.894C268.197 373.894 268.99 411.611 258.999 441.138L268.197 373.894Z"/><path stroke="#A0A3A8" stroke-linecap="round" stroke-linejoin="round" stroke-width="3" d="M268.197 373.894C268.197 373.894 268.99 411.611 258.999 441.138"/><path fill="#D0F7DA" d="M281.937 480.919C281.937 480.919 293.644 413.267 334.362 389.66C334.362 389.66 333.594 446.853 300.513 493.107"/><path stroke="#A0A3A8" stroke-width="3" d="M281.937 480.919C281.937 480.919 293.644 413.267 334.362 389.66C334.362 389.66 333.594 446.853 300.512 493.107"/><path fill="#FCE3DE" stroke="#A0A3A8" stroke-width="3" d="M207.501 471.961L219.929 509.185C220.36 510.123 221.05 510.917 221.918 511.475C222.786 512.032 223.796 512.329 224.828 512.331H309.026C310.185 512.331 311.314 511.957 312.244 511.265C313.174 510.573 313.856 509.599 314.189 508.489L325.272 471.265C325.512 470.461 325.56 469.612 325.413 468.786C325.267 467.959 324.929 467.179 324.428 466.506C323.926 465.833 323.275 465.287 322.525 464.91C321.776 464.534 320.948 464.337 320.109 464.336H212.388C211.486 464.337 210.599 464.564 209.807 464.996C209.016 465.429 208.347 466.054 207.86 466.813C207.373 467.572 207.085 468.442 207.023 469.341C206.96 470.241 207.124 471.142 207.501 471.961Z"/><path fill="#A0A3A8" d="M224.828 512.284C223.796 512.282 222.786 511.984 221.918 511.427C221.05 510.869 220.36 510.075 219.929 509.137L207.501 471.913C207.124 471.094 206.96 470.193 207.023 469.293C207.085 468.394 207.373 467.524 207.86 466.765C208.347 466.006 209.016 465.381 209.807 464.948C210.599 464.516 211.486 464.289 212.388 464.289H249.612V511.755L224.828 512.284Z" opacity=".33"/><path fill="#D0F7DA" d="M334.314 391.221C334.314 391.221 324.204 427.569 306.12 453.013L334.314 391.221Z"/><path stroke="#A0A3A8" stroke-linecap="round" stroke-linejoin="round" stroke-width="3" d="M334.314 391.221C334.314 391.221 324.204 427.569 306.12 453.013"/><path fill="#DAE1F2" d="M648.039 165.368H256.563C248.287 165.368 241.577 172.077 241.577 180.354V429.634C241.577 437.911 248.287 444.62 256.563 444.62H648.039C656.316 444.62 663.025 437.911 663.025 429.634V180.354C663.025 172.077 656.316 165.368 648.039 165.368Z"/><path fill="#455A7F" d="M646.803 446.661H257.848C247.76 446.648 239.585 438.473 239.572 428.385V181.602C239.593 171.519 247.765 163.352 257.848 163.338H646.803C656.884 163.352 665.053 171.52 665.067 181.602V428.385C665.059 438.472 656.889 446.648 646.803 446.661ZM257.848 167.397C250.006 167.404 243.65 173.76 243.643 181.602V428.385C243.643 436.231 250.002 442.59 257.848 442.59H646.803C654.645 442.583 661.001 436.227 661.008 428.385V181.602C660.995 173.762 654.643 167.41 646.803 167.397H257.848Z"/><path fill="#fff" d="M263.489 184.496H641.133V394.463H263.489V184.496Z"/><path fill="#455A7F" d="M641.137 396.493H263.494C262.956 396.493 262.44 396.279 262.059 395.898C261.678 395.518 261.465 395.002 261.465 394.464V184.496C261.463 184.229 261.514 183.963 261.616 183.716C261.717 183.468 261.866 183.243 262.055 183.053C262.243 182.864 262.468 182.713 262.715 182.61C262.962 182.508 263.226 182.455 263.494 182.455H641.137C641.677 182.458 642.193 182.674 642.573 183.057C642.953 183.439 643.167 183.957 643.167 184.496V394.464C643.167 395.002 642.953 395.518 642.572 395.898C642.192 396.279 641.676 396.493 641.137 396.493ZM265.523 392.434H639.108V186.525H265.523V392.434Z"/><path fill="#6B6B6B" d="M325.344 235.529H235.742C229.024 235.529 223.578 240.975 223.578 247.693V370.856C223.578 377.574 229.024 383.02 235.742 383.02H325.344C332.062 383.02 337.508 377.574 337.508 370.856V247.693C337.508 240.975 332.062 235.529 325.344 235.529Z" opacity=".19"/><path fill="#4951F5" d="M261.465 185.697H639.108V393.635H261.465V185.697Z" opacity=".04"/><g opacity=".19"><path fill="#6B6B6B" d="M669.474 155.185H412.544C404.268 155.185 397.558 161.895 397.558 170.171V330.294C397.558 338.571 404.268 345.28 412.544 345.28H669.474C677.75 345.28 684.459 338.571 684.459 330.294V170.171C684.459 161.895 677.75 155.185 669.474 155.185Z" opacity=".19"/><path fill="#6B6B6B" d="M673.4 346.661H408.618C401.749 346.654 396.185 341.089 396.178 334.221V166.233C396.185 159.364 401.749 153.8 408.618 153.792H673.4C680.269 153.8 685.833 159.364 685.84 166.233V334.221C685.833 341.089 680.269 346.654 673.4 346.661ZM408.618 156.566C406.063 156.566 403.613 157.576 401.8 159.375C399.987 161.175 398.959 163.618 398.94 166.172V334.161C398.943 336.727 399.963 339.186 401.778 341.001C403.592 342.815 406.052 343.836 408.618 343.839H673.4C675.966 343.836 678.426 342.815 680.24 341.001C682.055 339.186 683.076 336.727 683.079 334.161V166.233C683.057 163.679 682.027 161.238 680.215 159.439C678.403 157.64 675.954 156.629 673.4 156.626L408.618 156.566Z" opacity=".19"/></g><path fill="#455A7F" d="M579.56 417.638H241.579C241.04 417.638 240.524 417.425 240.144 417.044C239.763 416.664 239.549 416.147 239.549 415.609C239.549 415.071 239.763 414.555 240.144 414.174C240.524 413.794 241.04 413.58 241.579 413.58H579.56C580.099 413.58 580.615 413.794 580.995 414.174C581.376 414.555 581.59 415.071 581.59 415.609C581.59 416.147 581.376 416.664 580.995 417.044C580.615 417.425 580.099 417.638 579.56 417.638ZM626.283 417.638H598.088C597.55 417.638 597.034 417.425 596.653 417.044C596.273 416.664 596.059 416.147 596.059 415.609C596.059 415.071 596.273 414.555 596.653 414.174C597.034 413.794 597.55 413.58 598.088 413.58H626.283C626.821 413.58 627.337 413.794 627.718 414.174C628.098 414.555 628.312 415.071 628.312 415.609C628.312 416.147 628.098 416.664 627.718 417.044C627.337 417.425 626.821 417.638 626.283 417.638ZM661.922 417.638H641.785C641.246 417.638 640.73 417.425 640.35 417.044C639.969 416.664 639.755 416.147 639.755 415.609C639.755 415.071 639.969 414.555 640.35 414.174C640.73 413.794 641.246 413.58 641.785 413.58H661.922C662.46 413.58 662.976 413.794 663.357 414.174C663.737 414.555 663.951 415.071 663.951 415.609C663.951 416.147 663.737 416.664 663.357 417.044C662.976 417.425 662.46 417.638 661.922 417.638Z"/><path fill="#455A7F" d="M452.312 436.382C456.278 436.382 459.492 433.167 459.492 429.202C459.492 425.236 456.278 422.021 452.312 422.021C448.346 422.021 445.131 425.236 445.131 429.202C445.131 433.167 448.346 436.382 452.312 436.382Z"/><path fill="#8F9092" d="M430.411 444.632H474.216V500.204H430.411V444.632Z"/><path fill="#455A7F" d="M476.245 502.233H428.358V442.59H476.221L476.245 502.233ZM432.441 498.222H472.186V446.709H432.441V498.222Z"/><path fill="#DAE1F2" d="M373.759 500.204H530.857V513.796H373.759V500.204Z"/><path fill="#455A7F" d="M530.859 515.826H373.761C373.223 515.826 372.707 515.612 372.326 515.231C371.946 514.851 371.732 514.335 371.732 513.796V500.204C371.732 499.665 371.946 499.149 372.326 498.769C372.707 498.388 373.223 498.174 373.761 498.174H530.859C531.397 498.174 531.913 498.388 532.293 498.769C532.674 499.149 532.888 499.665 532.888 500.204V513.832C532.882 514.365 532.665 514.874 532.284 515.248C531.904 515.621 531.392 515.829 530.859 515.826ZM375.791 511.767H528.829V502.233H375.791V511.767ZM797.767 330.474C793.67 330.555 789.598 329.818 785.79 328.306C781.982 326.794 778.513 324.538 775.587 321.67C772.661 318.801 770.337 315.378 768.75 311.6C767.164 307.822 766.346 303.766 766.346 299.668C766.346 295.571 767.164 291.515 768.75 287.737C770.337 283.959 772.661 280.536 775.587 277.667C778.513 274.798 781.982 272.542 785.79 271.03C789.598 269.519 793.67 268.782 797.767 268.862C798.305 268.862 798.821 269.076 799.202 269.457C799.582 269.837 799.796 270.354 799.796 270.892C799.796 271.43 799.582 271.946 799.202 272.327C798.821 272.707 798.305 272.921 797.767 272.921C794.206 272.846 790.667 273.482 787.356 274.792C784.045 276.102 781.028 278.06 778.484 280.552C775.939 283.043 773.918 286.017 772.538 289.3C771.157 292.582 770.447 296.107 770.447 299.668C770.447 303.229 771.157 306.754 772.538 310.037C773.918 313.32 775.939 316.294 778.484 318.785C781.028 321.276 784.045 323.234 787.356 324.545C790.667 325.855 794.206 326.491 797.767 326.416C798.305 326.416 798.821 326.629 799.202 327.01C799.582 327.39 799.796 327.907 799.796 328.445C799.796 328.983 799.582 329.499 799.202 329.88C798.821 330.26 798.305 330.474 797.767 330.474ZM810.615 363.616C810.077 363.616 809.561 363.402 809.18 363.021C808.799 362.641 808.586 362.124 808.586 361.586C808.586 361.048 808.799 360.532 809.18 360.151C809.561 359.771 810.077 359.557 810.615 359.557C812.408 359.611 814.193 359.304 815.865 358.655C817.537 358.006 819.062 357.028 820.349 355.779C821.636 354.53 822.659 353.035 823.358 351.383C824.057 349.731 824.417 347.956 824.417 346.162C824.417 344.369 824.057 342.593 823.358 340.942C822.659 339.29 821.636 337.795 820.349 336.546C819.062 335.297 817.537 334.319 815.865 333.67C814.193 333.021 812.408 332.714 810.615 332.768C810.077 332.768 809.561 332.554 809.18 332.173C808.799 331.793 808.586 331.277 808.586 330.738C808.586 330.2 808.799 329.684 809.18 329.303C809.561 328.923 810.077 328.709 810.615 328.709C812.945 328.648 815.265 329.054 817.436 329.904C819.607 330.753 821.585 332.029 823.255 333.656C824.925 335.283 826.253 337.227 827.159 339.375C828.065 341.523 828.532 343.831 828.532 346.162C828.532 348.494 828.065 350.801 827.159 352.949C826.253 355.097 824.925 357.042 823.255 358.669C821.585 360.295 819.607 361.571 817.436 362.421C815.265 363.27 812.945 363.677 810.615 363.616ZM798.259 383.873C796.767 383.873 795.29 383.579 793.912 383.008C792.534 382.437 791.281 381.6 790.227 380.546C789.172 379.491 788.335 378.238 787.764 376.86C787.193 375.482 786.9 374.005 786.9 372.513C786.9 371.022 787.193 369.544 787.764 368.166C788.335 366.788 789.172 365.536 790.227 364.481C791.281 363.426 792.534 362.589 793.912 362.019C795.29 361.448 796.767 361.154 798.259 361.154C798.772 361.193 799.251 361.425 799.6 361.802C799.95 362.18 800.144 362.675 800.144 363.189C800.144 363.704 799.95 364.199 799.6 364.576C799.251 364.954 798.772 365.185 798.259 365.225C797.276 365.185 796.295 365.344 795.375 365.692C794.456 366.041 793.616 366.572 792.906 367.253C792.197 367.935 791.632 368.752 791.247 369.657C790.861 370.562 790.662 371.536 790.662 372.519C790.662 373.503 790.861 374.476 791.247 375.381C791.632 376.286 792.197 377.104 792.906 377.785C793.616 378.467 794.456 378.997 795.375 379.346C796.295 379.695 797.276 379.854 798.259 379.814C798.797 379.814 799.313 380.028 799.694 380.408C800.074 380.789 800.288 381.305 800.288 381.843C800.288 382.381 800.074 382.898 799.694 383.278C799.313 383.659 798.797 383.873 798.259 383.873ZM833.742 515.826H783.886C783.347 515.826 782.831 515.612 782.451 515.231C782.07 514.851 781.856 514.335 781.856 513.796C781.856 513.258 782.07 512.742 782.451 512.361C782.831 511.981 783.347 511.767 783.886 511.767H833.742C834.28 511.767 834.796 511.981 835.177 512.361C835.557 512.742 835.771 513.258 835.771 513.796C835.771 514.335 835.557 514.851 835.177 515.231C834.796 515.612 834.28 515.826 833.742 515.826ZM210.612 516.918H60.3713C56.9851 516.918 54.2473 515.922 54.2473 514.685C54.2473 513.448 56.9851 512.463 60.3713 512.463H210.612C213.986 512.463 216.724 513.46 216.724 514.685C216.724 515.91 213.986 516.918 210.612 516.918ZM804.971 364.3C804.433 364.3 803.917 364.086 803.536 363.706C803.156 363.325 802.942 362.809 802.942 362.271C802.942 361.732 803.156 361.216 803.536 360.836C803.917 360.455 804.433 360.241 804.971 360.241C805.512 360.241 806.03 360.454 806.415 360.834C806.799 361.214 807.018 361.73 807.025 362.271C807.026 362.54 806.974 362.806 806.871 363.055C806.768 363.303 806.617 363.529 806.425 363.718C806.234 363.907 806.007 364.056 805.757 364.156C805.507 364.256 805.24 364.305 804.971 364.3ZM804.275 331.951C803.804 331.948 803.349 331.782 802.987 331.48C802.626 331.179 802.381 330.761 802.293 330.298C802.206 329.835 802.282 329.357 802.509 328.944C802.736 328.532 803.099 328.211 803.536 328.037C803.974 327.862 804.458 327.846 804.907 327.989C805.355 328.133 805.739 328.428 805.994 328.824C806.249 329.22 806.358 329.692 806.303 330.16C806.248 330.627 806.032 331.061 805.692 331.387C805.494 331.576 805.261 331.724 805.005 331.821C804.749 331.918 804.476 331.962 804.203 331.951H804.275ZM804.911 272.921C804.441 272.918 803.987 272.753 803.626 272.452C803.265 272.152 803.019 271.736 802.93 271.274C802.842 270.813 802.916 270.335 803.141 269.922C803.365 269.51 803.726 269.188 804.161 269.011C804.596 268.835 805.079 268.815 805.528 268.955C805.976 269.095 806.362 269.386 806.62 269.779C806.878 270.171 806.991 270.641 806.941 271.108C806.891 271.576 806.68 272.011 806.345 272.34C806.153 272.529 805.925 272.677 805.675 272.777C805.424 272.877 805.157 272.926 804.887 272.921H804.911ZM803.578 384.821C803.109 384.816 802.655 384.647 802.296 384.345C801.936 384.042 801.693 383.624 801.607 383.163C801.522 382.701 801.599 382.223 801.826 381.812C802.052 381.401 802.415 381.081 802.851 380.907C803.288 380.733 803.771 380.716 804.219 380.858C804.666 381.001 805.05 381.295 805.306 381.689C805.561 382.083 805.672 382.554 805.619 383.021C805.566 383.487 805.353 383.921 805.016 384.248C804.821 384.438 804.59 384.586 804.337 384.684C804.084 384.783 803.814 384.829 803.542 384.821H803.578ZM808.225 388.532C807.687 388.532 807.171 388.318 806.79 387.937C806.41 387.557 806.196 387.04 806.196 386.502C806.196 385.964 806.41 385.448 806.79 385.067C807.171 384.687 807.687 384.473 808.225 384.473C808.761 384.492 809.269 384.72 809.639 385.108C810.01 385.496 810.213 386.014 810.207 386.55C810.197 387.073 809.986 387.571 809.616 387.941C809.247 388.311 808.748 388.522 808.225 388.532ZM263.494 515.826H230.629C230.091 515.826 229.575 515.612 229.194 515.231C228.813 514.851 228.6 514.335 228.6 513.796C228.6 513.258 228.813 512.742 229.194 512.361C229.575 511.981 230.091 511.767 230.629 511.767H263.494C264.032 511.767 264.549 511.981 264.929 512.361C265.31 512.742 265.524 513.258 265.524 513.796C265.524 514.335 265.31 514.851 264.929 515.231C264.549 515.612 264.032 515.826 263.494 515.826Z"/><path fill="#fff" d="M194.089 510.458H39.3094C31.3519 510.458 24.9001 504.006 24.9001 496.049V490.693C24.9001 482.736 31.3519 476.284 39.3094 476.284H194.089"/><path stroke="#455A7F" stroke-linecap="round" stroke-linejoin="round" stroke-width="4" d="M194.089 510.458H39.3094C31.3519 510.458 24.9001 504.006 24.9001 496.049V490.693C24.9001 482.736 31.3519 476.284 39.3094 476.284H194.089"/><path fill="#E8E8E8" d="M194.726 510.038H39.9103C31.9852 510.038 25.501 504.694 25.501 498.174H194.726V510.038Z"/><path stroke="#455A7F" stroke-linecap="round" stroke-linejoin="round" stroke-width="4" d="M185.009 478.71V508.201"/><path fill="#fff" d="M19.4609 442.302H174.277C182.234 442.302 188.686 435.851 188.686 427.893V422.574C188.686 414.616 182.234 408.164 174.277 408.164H19.4609"/><path stroke="#455A7F" stroke-linecap="round" stroke-linejoin="round" stroke-width="4" d="M19.4609 442.302H174.277C182.234 442.302 188.686 435.851 188.686 427.893V422.574C188.686 414.616 182.234 408.164 174.277 408.164H19.4609"/><path fill="#fff" d="M19.4609 442.302H174.277C182.234 442.302 188.686 435.851 188.686 427.893V422.574C188.686 414.616 182.234 408.164 174.277 408.164H19.4609"/><path stroke="#455A7F" stroke-linecap="round" stroke-linejoin="round" stroke-width="4" d="M19.4609 442.302H174.277C182.234 442.302 188.686 435.851 188.686 427.893V422.574C188.686 414.616 182.234 408.164 174.277 408.164H19.4609"/><path fill="#fff" d="M19.4609 442.302H174.277C182.234 442.302 188.686 435.851 188.686 427.893V422.574C188.686 414.616 182.234 408.164 174.277 408.164H19.4609"/><path stroke="#455A7F" stroke-linecap="round" stroke-linejoin="round" stroke-width="4" d="M19.4609 442.302H174.277C182.234 442.302 188.686 435.851 188.686 427.893V422.574C188.686 414.616 182.234 408.164 174.277 408.164H19.4609"/><path stroke="#455A7F" stroke-linecap="round" stroke-linejoin="round" stroke-width="4" d="M28.5493 410.566V440.045"/><path fill="#96D1CD" stroke="#455A7F" stroke-linecap="round" stroke-linejoin="round" stroke-width="4" d="M194.941 444.632H35.5858C33.3244 444.632 31.4912 446.465 31.4912 448.726V468.323C31.4912 470.585 33.3244 472.418 35.5858 472.418H194.941C197.202 472.418 199.035 470.585 199.035 468.323V448.726C199.035 446.465 197.202 444.632 194.941 444.632Z"/><path fill="#FFAFA4" stroke="#455A7F" stroke-linecap="round" stroke-linejoin="round" stroke-width="4" d="M165.449 375.623H6.09464C3.83324 375.623 2 377.457 2 379.718V399.315C2 401.576 3.83324 403.409 6.09464 403.409H165.449C167.711 403.409 169.544 401.576 169.544 399.315V379.718C169.544 377.457 167.711 375.623 165.449 375.623Z"/><path fill="#74C3E1" stroke="#455A7F" stroke-linecap="round" stroke-linejoin="round" stroke-width="4" d="M180.747 333.152H21.3923C19.1308 333.152 17.2976 334.985 17.2976 337.246V366.798C17.2976 369.059 19.1308 370.892 21.3923 370.892H180.747C183.008 370.892 184.842 369.059 184.842 366.798V337.246C184.842 334.985 183.008 333.152 180.747 333.152Z"/><path fill="#74C3E1" stroke="#455A7F" stroke-linecap="round" stroke-linejoin="round" stroke-width="4" d="M180.747 333.152H21.3923C19.1308 333.152 17.2976 334.985 17.2976 337.246V366.798C17.2976 369.059 19.1308 370.892 21.3923 370.892H180.747C183.008 370.892 184.842 369.059 184.842 366.798V337.246C184.842 334.985 183.008 333.152 180.747 333.152Z"/><path stroke="#455A7F" stroke-linecap="round" stroke-linejoin="round" stroke-width="4" d="M129.318 499.147H171.357M169.556 418.839H39.3799H169.556ZM41.169 487.583H171.345H41.169ZM95.456 499.147H115.269H95.456ZM41.169 499.147H83.2081H41.169Z"/><path fill="#DAE1F2" d="M683.87 140.368H426.941C418.664 140.368 411.955 147.077 411.955 155.353V315.477C411.955 323.753 418.664 330.462 426.941 330.462H683.87C692.147 330.462 698.856 323.753 698.856 315.477V155.353C698.856 147.077 692.147 140.368 683.87 140.368Z"/><path fill="#455A7F" d="M687.798 331.843H423.004C416.138 331.836 410.576 326.269 410.576 319.403V151.415C410.583 144.553 416.142 138.994 423.004 138.987H687.798C694.661 138.994 700.225 144.552 700.238 151.415V319.403C700.231 326.271 694.667 331.836 687.798 331.843ZM423.004 141.748C420.441 141.752 417.984 142.771 416.172 144.583C414.36 146.395 413.341 148.852 413.337 151.415V319.403C413.337 321.968 414.355 324.428 416.168 326.242C417.98 328.057 420.439 329.078 423.004 329.081H687.798C690.363 329.078 692.822 328.057 694.634 326.242C696.447 324.428 697.465 321.968 697.465 319.403V151.415C697.461 148.852 696.442 146.395 694.63 144.583C692.818 142.771 690.361 141.752 687.798 141.748H423.004Z"/><path fill="#455A7F" d="M698.846 165.74V316.125C698.827 324.388 692.136 331.084 683.873 331.11H426.907C418.639 331.091 411.941 324.393 411.921 316.125V165.74"/><path fill="#455A7F" d="M654.742 157.983C657.706 157.983 660.109 155.58 660.109 152.615C660.109 149.651 657.706 147.248 654.742 147.248C651.778 147.248 649.375 149.651 649.375 152.615C649.375 155.58 651.778 157.983 654.742 157.983Z"/><path fill="#455A7F" d="M430.412 157.983C433.377 157.983 435.78 155.58 435.78 152.615C435.78 149.651 433.377 147.248 430.412 147.248C427.448 147.248 425.045 149.651 425.045 152.615C425.045 155.58 427.448 157.983 430.412 157.983Z"/><path fill="#455A7F" d="M675.264 157.983C678.228 157.983 680.631 155.58 680.631 152.615C680.631 149.651 678.228 147.248 675.264 147.248C672.299 147.248 669.896 149.651 669.896 152.615C669.896 155.58 672.299 157.983 675.264 157.983Z"/><path fill="#E8E9FC" d="M665.5 332.035H693.31V347.789H665.5V332.035Z"/><path stroke="#fff" stroke-linecap="round" stroke-linejoin="round" stroke-width="4" d="M439.646 189.611H481.193"/><path stroke="#74BF44" stroke-linecap="round" stroke-linejoin="round" stroke-width="4" d="M495.939 189.611H537.497"/><path stroke="#fff" stroke-linecap="round" stroke-linejoin="round" stroke-width="4" d="M552.267 189.611H573.041"/><path stroke="#67C7CC" stroke-linecap="round" stroke-linejoin="round" stroke-width="4" d="M439.646 207.707H470.025"/><path stroke="#EC2831" stroke-linecap="round" stroke-linejoin="round" stroke-width="4" d="M482.984 207.707H508.452"/><path stroke="#fff" stroke-linecap="round" stroke-linejoin="round" stroke-width="4" d="M521.441 207.707H542.215"/><path stroke="#74BF44" stroke-linecap="round" stroke-linejoin="round" stroke-width="4" d="M439.646 225.803H481.193"/><path stroke="#67C7CC" stroke-linecap="round" stroke-linejoin="round" stroke-width="4" d="M495.939 225.803H566.976"/><path stroke="#ECAA26" stroke-linecap="round" stroke-linejoin="round" stroke-width="4" d="M485.887 243.898H538.157M439.646 243.898H472.187H439.646Z"/><path stroke="#fff" stroke-linecap="round" stroke-linejoin="round" stroke-width="4" d="M553.599 243.898H574.372"/><path stroke="#67C7CC" stroke-linecap="round" stroke-linejoin="round" stroke-width="4" d="M439.646 261.994H481.193"/><path stroke="#74BF44" stroke-linecap="round" stroke-linejoin="round" stroke-width="4" d="M495.939 261.994H524.541"/><path stroke="#fff" stroke-linecap="round" stroke-linejoin="round" stroke-width="4" d="M439.646 280.09H470.025"/><path stroke="#67C7CC" stroke-linecap="round" stroke-linejoin="round" stroke-width="4" d="M483.018 280.09H521.443"/><path stroke="#EC2831" stroke-linecap="round" stroke-linejoin="round" stroke-width="4" d="M439.646 298.186H454.836"/><path stroke="#74BF44" stroke-linecap="round" stroke-linejoin="round" stroke-width="4" d="M466.602 298.186H508.161"/><path stroke="#fff" stroke-linecap="round" stroke-linejoin="round" stroke-width="4" d="M521.672 298.186H542.446"/><path stroke="#67C7CC" stroke-linecap="round" stroke-linejoin="round" stroke-width="4" d="M534.026 280.09H572.451"/><path fill="#fff" d="M641.293 286.13L641.113 286.334L637.042 290.404C636.92 290.49 636.821 290.603 636.753 290.735C636.685 290.866 636.649 291.013 636.649 291.161C636.649 291.309 636.685 291.455 636.753 291.587C636.821 291.719 636.92 291.832 637.042 291.917L642.962 297.825C643.027 297.877 643.095 297.925 643.166 297.969L641.497 299.626L641.329 299.47C639.347 297.489 637.354 295.52 635.397 293.466C635.301 293.357 635.183 293.269 635.05 293.209C634.918 293.149 634.774 293.117 634.628 293.117C634.483 293.117 634.339 293.149 634.206 293.209C634.074 293.269 633.956 293.357 633.86 293.466C632.527 294.823 631.158 296.168 629.813 297.513C629.747 297.592 629.687 297.677 629.633 297.765L622.813 279.261L641.293 286.13Z"/><path fill="#fff" stroke="#455A7F" stroke-linecap="round" stroke-linejoin="round" stroke-width="3" d="M313.758 224.038H224.589C217.752 224.038 212.209 229.58 212.209 236.418V359.149C212.209 365.986 217.752 371.529 224.589 371.529H313.758C320.596 371.529 326.138 365.986 326.138 359.149V236.418C326.138 229.58 320.596 224.038 313.758 224.038Z"/><path fill="#455A7F" d="M233.617 253.961C237.875 253.961 241.326 250.509 241.326 246.252C241.326 241.994 237.875 238.543 233.617 238.543C229.36 238.543 225.908 241.994 225.908 246.252C225.908 250.509 229.36 253.961 233.617 253.961Z"/><path stroke="#455A7F" stroke-linecap="round" stroke-linejoin="round" stroke-width="3" d="M251.425 246.252H299.408"/><path stroke="#455A7F" stroke-linecap="round" stroke-linejoin="round" stroke-width="2" d="M262.988 264.348H288.012"/><path stroke="#455A7F" stroke-linecap="round" stroke-linejoin="round" stroke-width="2" d="M251.427 268.946C253.967 268.946 256.026 266.887 256.026 264.348C256.026 261.808 253.967 259.749 251.427 259.749C248.887 259.749 246.828 261.808 246.828 264.348C246.828 266.887 248.887 268.946 251.427 268.946Z"/><path stroke="#455A7F" stroke-linecap="round" stroke-linejoin="round" stroke-width="2" d="M262.988 281.098H297.955"/><path stroke="#455A7F" stroke-linecap="round" stroke-linejoin="round" stroke-width="2" d="M251.427 285.697C253.967 285.697 256.026 283.638 256.026 281.098C256.026 278.558 253.967 276.499 251.427 276.499C248.887 276.499 246.828 278.558 246.828 281.098C246.828 283.638 248.887 285.697 251.427 285.697Z"/><path stroke="#455A7F" stroke-linecap="round" stroke-linejoin="round" stroke-width="2" d="M262.988 297.849H281.648"/><path stroke="#455A7F" stroke-linecap="round" stroke-linejoin="round" stroke-width="2" d="M251.427 302.448C253.967 302.448 256.026 300.389 256.026 297.849C256.026 295.309 253.967 293.25 251.427 293.25C248.887 293.25 246.828 295.309 246.828 297.849C246.828 300.389 248.887 302.448 251.427 302.448Z"/><path fill="#455A7F" d="M233.617 326.488C237.875 326.488 241.326 323.036 241.326 318.779C241.326 314.521 237.875 311.07 233.617 311.07C229.36 311.07 225.908 314.521 225.908 318.779C225.908 323.036 229.36 326.488 233.617 326.488Z"/><path stroke="#455A7F" stroke-linecap="round" stroke-linejoin="round" stroke-width="3" d="M251.425 318.779H290.967"/><path stroke="#455A7F" stroke-linecap="round" stroke-linejoin="round" stroke-width="2" d="M262.988 336.874H290.966"/><path stroke="#455A7F" stroke-linecap="round" stroke-linejoin="round" stroke-width="2" d="M251.427 341.473C253.967 341.473 256.026 339.414 256.026 336.874C256.026 334.334 253.967 332.275 251.427 332.275C248.887 332.275 246.828 334.334 246.828 336.874C246.828 339.414 248.887 341.473 251.427 341.473Z"/><path stroke="#455A7F" stroke-linecap="round" stroke-linejoin="round" stroke-width="2" d="M286.787 353.637H304.259M262.988 353.637H280.471H262.988Z"/><path stroke="#455A7F" stroke-linecap="round" stroke-linejoin="round" stroke-width="2" d="M251.427 358.236C253.967 358.236 256.026 356.177 256.026 353.637C256.026 351.097 253.967 349.038 251.427 349.038C248.887 349.038 246.828 351.097 246.828 353.637C246.828 356.177 248.887 358.236 251.427 358.236Z"/><path fill="#E8E9FC" d="M224.816 379.526C224.816 377.461 223.615 375.383 223.615 373.318H239.646L239.045 386.046C236.379 386.046 234.302 385.446 231.636 385.446"/><path fill="#FFBB4D" stroke="#455A7F" stroke-linecap="round" stroke-linejoin="round" stroke-width="2" d="M724.349 447.033L731.998 398.906L743.393 401.2L733.871 460.938L724.337 458.729L724.349 447.033Z" opacity=".4"/><path stroke="#455A7F" stroke-linecap="round" stroke-linejoin="round" stroke-width="2" d="M730.463 408.573L741.846 410.914" opacity=".4"/><path fill="#C7C8C9" stroke="#455A7F" stroke-linecap="round" stroke-linejoin="round" stroke-width="2" d="M714.984 452.461L715.068 403.721L726.679 404.214L726.547 464.709L716.785 464L714.984 452.461Z" opacity=".4"/><path fill="#455A7F" d="M702.663 465.405L689.815 420.604C689.737 420.356 689.711 420.094 689.74 419.836C689.768 419.577 689.85 419.327 689.979 419.101C690.109 418.876 690.284 418.679 690.493 418.525C690.703 418.37 690.942 418.261 691.196 418.203L698.784 416.354C699.263 416.242 699.766 416.318 700.191 416.566C700.615 416.813 700.928 417.215 701.066 417.686L716.676 472.118C716.749 472.369 716.77 472.633 716.737 472.893C716.704 473.153 716.618 473.404 716.484 473.629C716.35 473.855 716.171 474.05 715.958 474.203C715.745 474.356 715.503 474.464 715.247 474.519L709.147 475.816C708.724 475.902 708.285 475.844 707.899 475.65C707.514 475.456 707.205 475.138 707.022 474.747L702.795 465.657C702.745 465.577 702.7 465.493 702.663 465.405Z" opacity=".4"/><path stroke="#455A7F" stroke-linecap="round" stroke-linejoin="round" stroke-width="2" d="M716.257 410.914H711.406V428.71" opacity=".4"/><path fill="#FF7DCC" d="M733.019 400.311L731.854 407.6L740.728 409.353L741.845 402.148L733.019 400.311Z" opacity=".4"/><path fill="#CFEBF9" d="M696.131 511.647H735.048L741.628 445.004H687.978L696.131 511.647Z"/><path fill="#A0A3A8" d="M736.391 515.718H694.929C694.579 515.717 694.242 515.589 693.981 515.356C693.72 515.124 693.553 514.804 693.512 514.457L684.95 444.944C684.928 444.742 684.948 444.538 685.008 444.344C685.067 444.15 685.166 443.97 685.298 443.815C685.434 443.663 685.601 443.542 685.787 443.459C685.974 443.376 686.175 443.334 686.379 443.335H743.284C743.484 443.336 743.681 443.378 743.864 443.459C744.046 443.541 744.21 443.659 744.344 443.807C744.479 443.955 744.581 444.129 744.644 444.319C744.708 444.508 744.731 444.709 744.713 444.908L737.844 514.421C737.811 514.781 737.643 515.114 737.373 515.355C737.103 515.596 736.753 515.725 736.391 515.718ZM696.129 512.848H735.046L741.627 446.205H687.976L696.129 512.848Z"/><path fill="#455A7F" d="M856.396 515.826H287.23C286.691 515.826 286.175 515.612 285.795 515.231C285.414 514.851 285.2 514.335 285.2 513.796C285.2 513.258 285.414 512.742 285.795 512.361C286.175 511.981 286.691 511.767 287.23 511.767H856.396C856.935 511.767 857.451 511.981 857.831 512.361C858.212 512.742 858.426 513.258 858.426 513.796C858.426 514.335 858.212 514.851 857.831 515.231C857.451 515.612 856.935 515.826 856.396 515.826Z"/><path fill="#FFCDB2" stroke="#455A7F" stroke-linecap="round" stroke-linejoin="round" stroke-width="4" d="M846.925 484.053H679.357C677.096 484.053 675.263 485.886 675.263 488.148V507.744C675.263 510.006 677.096 511.839 679.357 511.839H846.925C849.187 511.839 851.02 510.006 851.02 507.744V488.148C851.02 485.886 849.187 484.053 846.925 484.053Z"/><path fill="#fff" stroke="#455A7F" stroke-linecap="round" stroke-linejoin="round" stroke-width="3" d="M374.914 138.506H292.985C287.886 138.506 283.751 142.641 283.751 147.74V196.612C283.751 201.712 287.886 205.846 292.985 205.846H374.914C380.014 205.846 384.148 201.712 384.148 196.612V147.74C384.148 142.641 380.014 138.506 374.914 138.506Z"/><path fill="#6B6B6B" d="M381.875 145.867H299.946C294.847 145.867 290.712 150.001 290.712 155.101V203.973C290.712 209.072 294.847 213.207 299.946 213.207H381.875C386.975 213.207 391.109 209.072 391.109 203.973V155.101C391.109 150.001 386.975 145.867 381.875 145.867Z" opacity=".19"/><path stroke="#455A7F" stroke-linecap="round" stroke-linejoin="round" stroke-width="4" d="M327.059 185.949L340.316 159.016M315.196 158.415L302.131 171.48L316.397 185.349L315.196 158.415ZM351.495 159.016L364.572 172.08L350.294 185.949L351.495 159.016Z"/><path fill-rule="evenodd" stroke="#455A7F" stroke-linecap="round" stroke-linejoin="round" stroke-width="2" d="M363.576 357.071H622.811V378.517H363.576V357.071Z" clip-rule="evenodd" opacity=".23"/><path fill="#FCE3DE" d="M222.664 474.723H323.769H222.664ZM228.596 504.382H243.618H228.596ZM253.776 504.382H306.118H253.776ZM347.161 259.749H382.763H347.161ZM347.161 277.472H382.763H347.161ZM347.161 295.207H382.763H347.161ZM347.161 312.943H382.763H347.161Z"/><path stroke="#A0A3A8" stroke-linecap="round" stroke-linejoin="round" stroke-width="3" d="M347.161 312.943H382.763M222.664 474.723H323.769H222.664ZM228.596 504.382H243.618H228.596ZM253.776 504.382H306.118H253.776ZM347.161 259.749H382.763H347.161ZM347.161 277.472H382.763H347.161ZM347.161 295.207H382.763H347.161Z"/><path fill="#E8E9FC" d="M385.863 144.042H410.574V163.338H385.863V144.042Z"/><path fill="#FCE3DE" d="M613.195 490.369V502.317V490.369ZM587.354 503.205H635.541H587.354Z"/><path stroke="#A0A3A8" stroke-linecap="round" stroke-linejoin="round" stroke-width="3" d="M587.354 503.205H635.541M613.195 490.369V502.317V490.369Z"/><path fill="#455A7F" d="M641.136 515.321H585.24C584.701 515.321 584.185 515.108 583.805 514.727C583.424 514.346 583.21 513.83 583.21 513.292C582.995 509.222 583.61 505.15 585.019 501.326C586.428 497.501 588.602 494.004 591.406 491.046C594.211 488.089 597.589 485.734 601.334 484.124C605.078 482.515 609.112 481.685 613.188 481.685C617.263 481.685 621.297 482.515 625.041 484.124C628.786 485.734 632.164 488.089 634.969 491.046C637.773 494.004 639.947 497.501 641.356 501.326C642.765 505.15 643.38 509.222 643.165 513.292C643.165 513.83 642.951 514.346 642.571 514.727C642.19 515.108 641.674 515.321 641.136 515.321ZM587.353 511.263H638.986C637.83 497.866 626.617 487.579 613.17 487.579C599.722 487.579 588.509 497.866 587.353 511.263Z"/><path fill="#fff" d="M71.3089 345.83H74.6569C75.5449 345.83 76.2329 346.046 76.7209 346.478C77.2169 346.91 77.4649 347.522 77.4649 348.314C77.4649 349.106 77.2169 349.722 76.7209 350.162C76.2249 350.602 75.5369 350.822 74.6569 350.822H72.2929V354.29H71.3089V345.83ZM74.5609 350.006C75.8489 350.006 76.4929 349.442 76.4929 348.314C76.4929 347.202 75.8489 346.646 74.5609 346.646H72.2929V350.006H74.5609ZM85.3684 345.83L82.0444 350.294V354.29H81.0604V350.282L77.7364 345.83H78.8764L81.5644 349.478L84.2524 345.83H85.3684ZM88.4309 354.29V346.67H85.4909V345.83H92.3789V346.67H89.4269V354.29H88.4309ZM99.5988 345.83H100.571V354.29H99.5988V350.414H94.5348V354.29H93.5628V345.83H94.5348V349.574H99.5988V345.83ZM106.197 354.386C105.413 354.386 104.729 354.21 104.145 353.858C103.569 353.506 103.125 353.006 102.813 352.358C102.501 351.71 102.345 350.946 102.345 350.066C102.345 349.178 102.497 348.41 102.801 347.762C103.113 347.106 103.557 346.606 104.133 346.262C104.717 345.91 105.405 345.734 106.197 345.734C106.989 345.734 107.673 345.91 108.249 346.262C108.833 346.606 109.277 347.106 109.581 347.762C109.893 348.41 110.049 349.174 110.049 350.054C110.049 350.934 109.893 351.702 109.581 352.358C109.269 353.006 108.821 353.506 108.237 353.858C107.661 354.21 106.981 354.386 106.197 354.386ZM106.197 353.546C107.093 353.546 107.789 353.246 108.285 352.646C108.789 352.038 109.041 351.174 109.041 350.054C109.041 348.934 108.793 348.074 108.297 347.474C107.801 346.874 107.101 346.574 106.197 346.574C105.301 346.574 104.601 346.878 104.097 347.486C103.601 348.086 103.353 348.942 103.353 350.054C103.353 351.166 103.601 352.026 104.097 352.634C104.601 353.242 105.301 353.546 106.197 353.546ZM117.677 345.83H118.601V354.29H117.845L112.745 347.486V354.29H111.821V345.83H112.577L117.677 352.634V345.83Z"/><path fill="#455A7F" d="M705.773 500.653L706.493 500.605C706.893 500.573 707.201 500.433 707.417 500.185C707.641 499.929 707.753 499.581 707.753 499.141V492.937H708.737V499.153C708.737 499.849 708.557 500.393 708.197 500.785C707.837 501.177 707.313 501.393 706.625 501.433L705.845 501.481L705.773 500.653ZM717.295 501.397L716.359 499.225H711.943L711.007 501.397H709.999L713.719 492.937H714.571L718.291 501.397H717.295ZM712.291 498.409H716.011L714.151 494.077L712.291 498.409ZM725 492.937H726.008L722.312 501.397H721.46L717.764 492.937H718.796L721.892 500.161L725 492.937ZM732.787 501.397L731.851 499.225H727.435L726.499 501.397H725.491L729.211 492.937H730.063L733.783 501.397H732.787ZM727.783 498.409H731.503L729.643 494.077L727.783 498.409Z"/><path fill="#fff" d="M105.31 461.423C104.51 461.423 103.814 461.251 103.222 460.907C102.63 460.555 102.174 460.055 101.854 459.407C101.542 458.751 101.386 457.979 101.386 457.091C101.386 456.203 101.542 455.435 101.854 454.787C102.174 454.139 102.63 453.643 103.222 453.299C103.814 452.947 104.51 452.771 105.31 452.771C105.894 452.771 106.43 452.863 106.918 453.047C107.406 453.223 107.83 453.487 108.19 453.839L107.818 454.595C107.41 454.251 107.01 454.003 106.618 453.851C106.226 453.699 105.794 453.623 105.322 453.623C104.394 453.623 103.674 453.927 103.162 454.535C102.658 455.135 102.406 455.987 102.406 457.091C102.406 458.203 102.658 459.063 103.162 459.671C103.674 460.271 104.394 460.571 105.322 460.571C105.794 460.571 106.226 460.495 106.618 460.343C107.01 460.191 107.41 459.943 107.818 459.599L108.19 460.355C107.83 460.707 107.406 460.975 106.918 461.159C106.43 461.335 105.894 461.423 105.31 461.423ZM115.303 457.535V458.291H112.747V460.835H112.003V458.291H109.447V457.535H112.003V454.979H112.747V457.535H115.303ZM122.498 457.535V458.291H119.942V460.835H119.198V458.291H116.642V457.535H119.198V454.979H119.942V457.535H122.498Z"/><path fill="#455A7F" d="M73.6315 392.546H72.5515L71.1115 389.834C70.9355 389.506 70.7275 389.282 70.4875 389.162C70.2555 389.034 69.9355 388.97 69.5275 388.97H67.9435V392.546H66.9715V384.086H70.4515C71.3715 384.086 72.0715 384.29 72.5515 384.698C73.0395 385.106 73.2835 385.706 73.2835 386.498C73.2835 387.154 73.0955 387.686 72.7195 388.094C72.3515 388.494 71.8235 388.746 71.1355 388.85C71.3515 388.914 71.5395 389.022 71.6995 389.174C71.8675 389.326 72.0195 389.53 72.1555 389.786L73.6315 392.546ZM70.3675 388.154C71.0235 388.154 71.5115 388.018 71.8315 387.746C72.1595 387.474 72.3235 387.062 72.3235 386.51C72.3235 385.966 72.1635 385.562 71.8435 385.298C71.5235 385.034 71.0315 384.902 70.3675 384.902H67.9435V388.154H70.3675ZM78.4981 392.642C77.3941 392.642 76.5581 392.354 75.9901 391.778C75.4221 391.202 75.1381 390.354 75.1381 389.234V384.086H76.1101V389.318C76.1101 390.142 76.3101 390.762 76.7101 391.178C77.1181 391.594 77.7141 391.802 78.4981 391.802C79.2821 391.802 79.8741 391.594 80.2741 391.178C80.6741 390.762 80.8741 390.142 80.8741 389.318V384.086H81.8581V389.234C81.8581 390.346 81.5701 391.194 80.9941 391.778C80.4261 392.354 79.5941 392.642 78.4981 392.642ZM88.6816 388.202C89.1696 388.33 89.5456 388.57 89.8096 388.922C90.0816 389.274 90.2176 389.714 90.2176 390.242C90.2176 390.986 89.9736 391.558 89.4856 391.958C88.9976 392.35 88.3056 392.546 87.4096 392.546H83.8816V384.086H87.2776C88.1496 384.086 88.8256 384.278 89.3056 384.662C89.7856 385.046 90.0256 385.59 90.0256 386.294C90.0256 386.75 89.9056 387.142 89.6656 387.47C89.4336 387.798 89.1056 388.042 88.6816 388.202ZM84.8536 387.842H87.1336C87.7656 387.842 88.2416 387.714 88.5616 387.458C88.8896 387.202 89.0536 386.83 89.0536 386.342C89.0536 385.382 88.4136 384.902 87.1336 384.902H84.8536V387.842ZM87.3136 391.73C87.9776 391.73 88.4656 391.61 88.7776 391.37C89.0976 391.122 89.2576 390.738 89.2576 390.218C89.2576 389.178 88.6096 388.658 87.3136 388.658H84.8536V391.73H87.3136ZM98.1755 384.086L94.8515 388.55V392.546H93.8675V388.538L90.5435 384.086H91.6835L94.3715 387.734L97.0595 384.086H98.1755Z"/><path fill="#fff" d="M14.0696 391.221V375.815V391.221ZM188.794 471.445V456.039V471.445ZM41.7714 471.445V456.039V471.445ZM685.843 484.834V508.201V484.834Z"/><path stroke="#455A7F" stroke-linecap="round" stroke-linejoin="round" stroke-width="3" d="M685.843 484.834V508.201M14.0696 391.221V375.815V391.221ZM188.794 471.445V456.039V471.445ZM41.7714 471.445V456.039V471.445Z"/><path fill="#E8E9FC" d="M17.2976 410.566H25.8111V440.057H17.2976V410.566ZM187.735 478.422H196.249V507.913H187.735V478.422Z"/><path fill="#3AA0BF" d="M18.2112 361.094H185.011V369.139H18.2112V361.094Z"/><path fill="#fff" d="M169.556 371.313V339.9V371.313ZM28.4534 371.313V339.9V371.313Z"/><path stroke="#455A7F" stroke-linecap="round" stroke-linejoin="round" stroke-width="3" d="M28.4534 371.313V339.9M169.556 371.313V339.9V371.313Z"/><path fill="#4BBCB1" d="M31.4912 463.736H199.035V471.433H31.4912V463.736Z"/><path stroke="#455A7F" stroke-linecap="round" stroke-linejoin="round" stroke-width="4" d="M194.089 510.458H39.3094C31.3519 510.458 24.9001 504.006 24.9001 496.049V490.693C24.9001 482.736 31.3519 476.284 39.3094 476.284H194.089"/><path fill="#E8E8E8" d="M31.4912 442.53H175.068C182.993 442.53 189.477 437.187 189.477 430.655H31.4912V442.53Z"/><path stroke="#455A7F" stroke-linecap="round" stroke-linejoin="round" stroke-width="4" d="M169.556 430.403H127.517M115.269 430.403H39.3799H115.269Z"/><path fill="#8F9092" d="M375.789 508.393H528.828V511.743H375.789V508.393Z"/><path fill="#455A7F" d="M704.716 445.316V484.654L691.315 484.053L684.927 444.944L704.716 445.316Z" opacity=".14"/><path stroke="#455A7F" stroke-linecap="round" stroke-linejoin="round" stroke-width="4" d="M180.747 333.152H21.3923C19.1308 333.152 17.2976 334.985 17.2976 337.246V366.798C17.2976 369.059 19.1308 370.892 21.3923 370.892H180.747C183.008 370.892 184.842 369.059 184.842 366.798V337.246C184.842 334.985 183.008 333.152 180.747 333.152Z"/><path fill="#EF867B" d="M2 394.956H169.544V403.409H2V394.956Z"/><path stroke="#455A7F" stroke-linecap="round" stroke-linejoin="round" stroke-width="4" d="M165.449 375.623H6.09464C3.83324 375.623 2 377.457 2 379.718V399.315C2 401.576 3.83324 403.409 6.09464 403.409H165.449C167.711 403.409 169.544 401.576 169.544 399.315V379.718C169.544 377.457 167.711 375.623 165.449 375.623Z"/><path stroke="#455A7F" stroke-linecap="round" stroke-linejoin="round" stroke-width="4" d="M194.941 444.632H35.5858C33.3244 444.632 31.4912 446.465 31.4912 448.726V468.323C31.4912 470.585 33.3244 472.418 35.5858 472.418H194.941C197.202 472.418 199.035 470.585 199.035 468.323V448.726C199.035 446.465 197.202 444.632 194.941 444.632Z"/><path fill="#fff" d="M188.793 471.445V456.039V471.445ZM41.7708 471.445V456.039V471.445Z"/><path stroke="#455A7F" stroke-linecap="round" stroke-linejoin="round" stroke-width="3" d="M41.7708 471.445V456.039M188.793 471.445V456.039V471.445Z"/><path fill="#ED956E" d="M687.375 503.806H848.219V509.365H687.375V503.806Z"/><path fill="#fff" d="M762.584 411.695L766.043 437.499L840.347 438.136L842.388 411.695H762.584Z"/><path fill="#8C7047" d="M766.04 438.628L771.252 481.003H834.557L838.375 438.628H766.04Z"/><path fill="#fff" d="M815.513 471.517C822.257 471.517 827.725 466.05 827.725 459.305C827.725 452.561 822.257 447.093 815.513 447.093C808.768 447.093 803.301 452.561 803.301 459.305C803.301 466.05 808.768 471.517 815.513 471.517Z"/><path fill="#455A7F" d="M815.515 474.723C812.463 474.723 809.479 473.818 806.942 472.122C804.404 470.426 802.426 468.015 801.259 465.195C800.091 462.375 799.786 459.272 800.383 456.279C800.979 453.285 802.45 450.536 804.609 448.378C806.768 446.221 809.519 444.752 812.513 444.158C815.506 443.564 818.609 443.872 821.429 445.041C824.248 446.211 826.657 448.191 828.351 450.73C830.045 453.269 830.948 456.253 830.945 459.305C830.938 467.822 824.032 474.723 815.515 474.723ZM815.515 450.311C813.737 450.311 811.998 450.839 810.519 451.827C809.04 452.815 807.887 454.22 807.206 455.863C806.525 457.507 806.347 459.315 806.694 461.06C807.041 462.804 807.898 464.407 809.156 465.665C810.414 466.923 812.016 467.779 813.761 468.126C815.505 468.473 817.314 468.295 818.957 467.614C820.601 466.934 822.005 465.781 822.993 464.302C823.982 462.823 824.509 461.084 824.509 459.305C824.506 456.921 823.557 454.635 821.871 452.949C820.186 451.263 817.9 450.315 815.515 450.311Z"/><path fill="#fff" d="M773.437 484.833L776.006 507.564H831.314L833.487 484.833H773.437Z"/><path fill="#E8E8E8" d="M764.191 412.835L767.65 438.64L792.398 439.264V412.835H764.191ZM770.892 483.309L774.35 509.101L792.398 509.738V483.309H770.892Z"/><path fill="#455A7F" d="M838.374 440.657H766.039C765.526 440.618 765.047 440.386 764.698 440.009C764.348 439.631 764.154 439.136 764.154 438.622C764.154 438.107 764.348 437.612 764.698 437.235C765.047 436.857 765.526 436.626 766.039 436.586H838.374C838.887 436.626 839.366 436.857 839.715 437.235C840.065 437.612 840.259 438.107 840.259 438.622C840.259 439.136 840.065 439.631 839.715 440.009C839.366 440.386 838.887 440.618 838.374 440.657Z"/><path stroke="#455A7F" stroke-linecap="round" stroke-linejoin="round" stroke-width="4" d="M19.4609 442.302H174.277C182.234 442.302 188.686 435.851 188.686 427.893V422.574C188.686 414.616 182.234 408.164 174.277 408.164H19.4609"/><path fill="#455A7F" d="M833.153 511.623H774.555C774.059 511.627 773.579 511.447 773.207 511.12C772.835 510.792 772.597 510.338 772.537 509.846L760.446 411.659C760.415 411.372 760.444 411.082 760.531 410.807C760.618 410.533 760.76 410.279 760.95 410.062C761.14 409.847 761.373 409.676 761.633 409.558C761.894 409.44 762.177 409.378 762.463 409.377H842.843C843.126 409.379 843.405 409.44 843.663 409.556C843.922 409.672 844.153 409.84 844.343 410.05C844.532 410.26 844.676 410.507 844.765 410.776C844.855 411.045 844.887 411.329 844.86 411.611L835.17 509.798C835.119 510.298 834.885 510.761 834.512 511.099C834.14 511.436 833.655 511.623 833.153 511.623ZM776.344 507.564H831.315L840.597 413.436H764.756L776.344 507.564Z"/><path fill="#455A7F" d="M841.891 421.241H763.649C763.11 421.241 762.594 421.027 762.214 420.646C761.833 420.266 761.619 419.75 761.619 419.211C761.619 418.673 761.833 418.157 762.214 417.776C762.594 417.396 763.11 417.182 763.649 417.182H841.891C842.429 417.182 842.946 417.396 843.326 417.776C843.707 418.157 843.92 418.673 843.92 419.211C843.92 419.75 843.707 420.266 843.326 420.646C842.946 421.027 842.429 421.241 841.891 421.241ZM834.566 484.834H771.25C770.711 484.834 770.195 484.62 769.815 484.239C769.434 483.859 769.22 483.343 769.22 482.804C769.22 482.266 769.434 481.75 769.815 481.369C770.195 480.989 770.711 480.775 771.25 480.775H834.566C835.105 480.775 835.621 480.989 836.001 481.369C836.382 481.75 836.596 482.266 836.596 482.804C836.596 483.343 836.382 483.859 836.001 484.239C835.621 484.62 835.105 484.834 834.566 484.834Z"/><path fill="#FCE3DE" d="M697.463 453.013H740.883H697.463ZM690.258 464.336H732.477H690.258ZM702.266 476.861H737.881H702.266Z"/><path stroke="#A0A3A8" stroke-linecap="round" stroke-linejoin="round" stroke-width="3" d="M702.266 476.861H737.881M697.463 453.013H740.883H697.463ZM690.258 464.336H732.477H690.258Z"/><path stroke="#DEDFE0" stroke-linecap="round" stroke-linejoin="round" stroke-width="3" d="M152.936 145.123V184.16M127.288 29.9204V64.4907V29.9204ZM213.155 65.9556H92.7175H213.155ZM161.858 65.9556V106.098V65.9556ZM213.155 106.098H21.3435H213.155ZM107.211 106.098V145.123V106.098ZM224.827 145.123H71.5239H224.827Z"/><path fill="#F2F3F4" stroke="#A0A3A8" stroke-width="3" d="M75.0067 169.871C104.989 169.871 129.294 145.566 129.294 115.584C129.294 85.602 104.989 61.2969 75.0067 61.2969C45.0248 61.2969 20.7197 85.602 20.7197 115.584C20.7197 145.566 45.0248 169.871 75.0067 169.871Z"/><path fill="#A0A3A8" d="M128.67 113.759C128.67 143.741 104.365 168.046 74.3827 168.046C44.4006 168.046 20.0957 143.741 20.0957 113.759H128.67Z" opacity=".17"/><path fill-rule="evenodd" stroke="#455A7F" stroke-dasharray="1.04 1.04" stroke-linecap="round" stroke-linejoin="round" stroke-width="4" d="M75.0094 160.721C99.9375 160.721 120.147 140.512 120.147 115.584C120.147 90.6558 99.9375 70.4468 75.0094 70.4468C50.0813 70.4468 29.8723 90.6558 29.8723 115.584C29.8723 140.512 50.0813 160.721 75.0094 160.721V160.721Z" clip-rule="evenodd"/><path stroke="#455A7F" stroke-linecap="round" stroke-linejoin="round" stroke-width="4" d="M70.8056 124.638L85.8753 96.4796M50.6926 84.4238L85.8753 129.657L50.6926 84.4238Z"/></svg>